<?xml version="1.0" encoding="UTF-8"?>
<svg version="1.1" xmlns="http://www.w3.org/2000/svg" width="500" height="500">
<path d="M0 0 C2.18160778 1.61310152 4.17129631 3.20560364 6.1875 5 C9.85249724 8.34380842 9.85249724 8.34380842 14 11 C14 11.66 14 12.32 14 13 C14.7425 13.268125 15.485 13.53625 16.25 13.8125 C18.86636554 14.94229421 20.80187111 16.20893202 23 18 C25.25162472 16.95460281 27.14589161 15.88843583 29.125 14.375 C31 13 31 13 33 13 C33 12.34 33 11.68 33 11 C34.92587579 9.36860063 36.84326717 7.86276775 38.875 6.375 C39.70837891 5.74464844 39.70837891 5.74464844 40.55859375 5.1015625 C44.73764712 2 44.73764712 2 47 2 C47 1.34 47 0.68 47 0 C50.77014969 -1.05252332 52.38850299 -1.33512353 55.88671875 0.58203125 C56.81097656 1.31808594 57.73523438 2.05414063 58.6875 2.8125 C59.61949219 3.54082031 60.55148438 4.26914062 61.51171875 5.01953125 C62.74341797 5.99986328 62.74341797 5.99986328 64 7 C64.99 7.66 65.98 8.32 67 9 C67 9.66 67 10.32 67 11 C67.53625 11.2475 68.0725 11.495 68.625 11.75 C71.5823982 13.30652537 74.29724051 15.03435673 77 17 C77 17.66 77 18.32 77 19 C78.98 18.34 80.96 17.68 83 17 C83 16.34 83 15.68 83 15 C85.01953125 13.3359375 85.01953125 13.3359375 87.8125 11.375 C90.9199816 9.19255481 93.98589278 7.01111872 96.96875 4.66015625 C97.9071875 3.92667969 98.845625 3.19320312 99.8125 2.4375 C100.66457031 1.75558594 101.51664063 1.07367188 102.39453125 0.37109375 C105.69684289 -1.36670443 107.46352732 -0.94478029 111 0 C111 0.66 111 1.32 111 2 C111.86044922 2.39638672 111.86044922 2.39638672 112.73828125 2.80078125 C115.12222149 4.06480483 117.0774052 5.50787991 119.1875 7.1875 C119.96996094 7.79851562 120.75242187 8.40953125 121.55859375 9.0390625 C123.20049066 10.3578341 124.81778393 11.70777409 126.41015625 13.0859375 C127.56837891 14.06433594 127.56837891 14.06433594 128.75 15.0625 C129.44609375 15.67222656 130.1421875 16.28195313 130.859375 16.91015625 C132.96177564 18.26152339 132.96177564 18.26152339 135.33203125 17.515625 C138.80802551 15.54097526 141.83661508 13.2009191 144.9375 10.6875 C145.53240234 10.21376953 146.12730469 9.74003906 146.74023438 9.25195312 C149.62612388 6.9463955 152.4675906 4.60139936 155.2734375 2.19921875 C158.04580424 -0.03694526 159.48521305 -0.81001152 163 -1 C163.99 -0.67 164.98 -0.34 166 0 C166 0.66 166 1.32 166 2 C167.11387085 2.39312378 167.11387085 2.39312378 168.25024414 2.79418945 C171.0230229 4.0100959 172.75757068 5.28049726 174.99609375 7.29296875 C176.08180664 8.2375293 176.08180664 8.2375293 177.18945312 9.20117188 C178.69179633 10.52861153 180.18659891 11.86463308 181.67382812 13.20898438 C185.97716431 17.12815719 185.97716431 17.12815719 191.53515625 17.92578125 C192.34855469 17.62027344 193.16195313 17.31476563 194 17 C194 16.34 194 15.68 194 15 C195.61739155 13.70668139 197.29673889 12.49043466 199 11.3125 C202.67737498 8.73692495 205.98358928 6.13996041 209.1875 3 C211.9290171 0.51850308 213.65033329 -0.46219479 217.375 -0.5625 C221 0 221 0 223 2 C223.25069833 4.66984272 223.25069833 4.66984272 223.25168228 8.14387512 C223.25689778 9.46334735 223.26211327 10.78281958 223.26748681 12.14227581 C223.263162 13.62064861 223.25864865 15.09902087 223.25396729 16.57739258 C223.25626957 18.13686933 223.25944452 19.69634499 223.26342177 21.25581837 C223.27181041 25.55726258 223.26762615 29.85861864 223.26144934 34.16006327 C223.2569424 38.79269937 223.26389983 43.42531984 223.26940918 48.05795288 C223.2783237 57.13964588 223.27637203 66.2213059 223.2705839 75.30300021 C223.26607549 82.68089491 223.26545094 90.05878034 223.26763153 97.43667603 C223.267938 98.48491415 223.26824446 99.53315227 223.26856022 100.61315519 C223.26919964 102.74232666 223.26984806 104.87149813 223.2705054 107.0006696 C223.27621472 126.98733194 223.26964137 146.97397597 223.25890467 166.9606353 C223.24996861 184.12708636 223.25152048 201.29351037 223.26074219 218.45996094 C223.2714342 238.3728807 223.27566535 258.28578439 223.26951766 278.19870663 C223.26888053 280.32024574 223.26825179 282.44178486 223.26763153 284.56332397 C223.26732298 285.60728626 223.26701443 286.65124854 223.26669653 287.72684604 C223.26496637 295.09977179 223.26789157 302.47268739 223.27259064 309.84561157 C223.27818762 318.82515563 223.27670805 327.8046647 223.26602915 336.78420472 C223.26075643 341.36968935 223.25874276 345.95511556 223.26532745 350.54059982 C223.27125612 354.73249044 223.26806325 358.92426809 223.25737235 363.11614835 C223.25512514 364.63832021 223.25630388 366.16050149 223.26112393 367.68266737 C223.26714383 369.74048014 223.2598162 371.79831938 223.25168228 373.85612488 C223.25135758 375.00255557 223.25103287 376.14898626 223.25069833 377.33015728 C223 380 223 380 221 382 C218.93288803 382.25069833 218.93288803 382.25069833 216.32415771 382.25168228 C215.33212467 382.25689778 214.34009163 382.26211327 213.31799698 382.26748681 C211.67123789 382.26079465 211.67123789 382.26079465 209.99121094 382.25396729 C208.83118435 382.25708727 207.67115776 382.26020725 206.47597885 382.26342177 C203.24626092 382.27004083 200.0166921 382.26762879 196.78697777 382.26144934 C193.30772462 382.25694005 189.82849224 382.263901 186.34924316 382.26940918 C179.52951265 382.27832119 172.70982606 382.27637316 165.8900938 382.2705839 C160.3495364 382.2660745 154.80899133 382.26545137 149.26843262 382.26763153 C148.08740137 382.26809123 148.08740137 382.26809123 146.8825109 382.26856022 C145.28321743 382.26919964 143.68392396 382.26984807 142.08463049 382.2705054 C127.07386739 382.27621399 112.06312869 382.26964252 97.05236959 382.25890467 C84.16120293 382.24996867 71.27007227 382.25152057 58.37890625 382.26074219 C43.42332999 382.2714355 28.46777513 382.27566461 13.51219559 382.26951766 C11.91865286 382.26888053 10.32511012 382.26825179 8.73156738 382.26763153 C7.55536351 382.2671687 7.55536351 382.2671687 6.35539794 382.26669653 C0.81891731 382.26496676 -4.71754979 382.26789073 -10.25402832 382.27259064 C-16.99745098 382.27818906 -23.74082705 382.276705 -30.48424435 382.26602915 C-33.92748518 382.26075837 -37.37064823 382.25873945 -40.81388855 382.26532745 C-44.53974156 382.27075056 -48.26537229 382.26398822 -51.99121094 382.25396729 C-53.08905033 382.25842873 -54.18688972 382.26289017 -55.31799698 382.26748681 C-56.31003002 382.26227132 -57.30206306 382.25705582 -58.32415771 382.25168228 C-59.18503872 382.25135758 -60.04591972 382.25103287 -60.93288803 382.25069833 C-63 382 -63 382 -65 380 C-65.25069833 377.33015728 -65.25069833 377.33015728 -65.25168228 373.85612488 C-65.25689778 372.53665265 -65.26211327 371.21718042 -65.26748681 369.85772419 C-65.263162 368.37935139 -65.25864865 366.90097913 -65.25396729 365.42260742 C-65.25626957 363.86313067 -65.25944452 362.30365501 -65.26342177 360.74418163 C-65.27181041 356.44273742 -65.26762615 352.14138136 -65.26144934 347.83993673 C-65.2569424 343.20730063 -65.26389983 338.57468016 -65.26940918 333.94204712 C-65.2783237 324.86035412 -65.27637203 315.7786941 -65.2705839 306.69699979 C-65.26607549 299.31910509 -65.26545094 291.94121966 -65.26763153 284.56332397 C-65.267938 283.51508585 -65.26824446 282.46684773 -65.26856022 281.38684481 C-65.26919964 279.25767334 -65.26984806 277.12850187 -65.2705054 274.9993304 C-65.27621472 255.01266806 -65.26964137 235.02602403 -65.25890467 215.0393647 C-65.24996861 197.87291364 -65.25152048 180.70648963 -65.26074219 163.54003906 C-65.2714342 143.6271193 -65.27566535 123.71421561 -65.26951766 103.80129337 C-65.26888053 101.67975426 -65.26825179 99.55821514 -65.26763153 97.43667603 C-65.26732298 96.39271374 -65.26701443 95.34875146 -65.26669653 94.27315396 C-65.26496637 86.90022821 -65.26789157 79.52731261 -65.27259064 72.15438843 C-65.27818762 63.17484437 -65.27670805 54.1953353 -65.26602915 45.21579528 C-65.26075643 40.63031065 -65.25874276 36.04488444 -65.26532745 31.45940018 C-65.27125612 27.26750956 -65.26806325 23.07573191 -65.25737235 18.88385165 C-65.25512514 17.36167979 -65.25630388 15.83949851 -65.26112393 14.31733263 C-65.26714383 12.25951986 -65.2598162 10.20168062 -65.25168228 8.14387512 C-65.25135758 6.99744443 -65.25103287 5.85101374 -65.25069833 4.66984272 C-65 2 -65 2 -63 0 C-58.25724067 -0.46650092 -56.07139562 -0.66962226 -52 1.875 C-50 4 -50 4 -50 6 C-49.17242187 6.38671875 -49.17242187 6.38671875 -48.328125 6.78125 C-45.65685825 8.17963125 -43.23148091 9.78763305 -40.75 11.5 C-39.85796875 12.1084375 -38.9659375 12.716875 -38.046875 13.34375 C-37.37140625 13.8903125 -36.6959375 14.436875 -36 15 C-36 15.66 -36 16.32 -36 17 C-33.33693173 18.0068429 -33.33693173 18.0068429 -30 18 C-27.3717382 16.51921376 -25.30331779 14.50793577 -23.125 12.4375 C-21.89338447 11.32390686 -20.660321 10.21191294 -19.42578125 9.1015625 C-18.83748535 8.5643457 -18.24918945 8.02712891 -17.64306641 7.47363281 C-6.83845156 -2.2168063 -6.83845156 -2.2168063 0 0 Z M-10 16 C-10 16.66 -10 17.32 -10 18 C-10.58716797 18.27706787 -11.17433594 18.55413574 -11.77929688 18.83959961 C-13.88169755 19.93818255 -15.64877304 21.13031399 -17.53125 22.56640625 C-18.49998047 23.2944043 -18.49998047 23.2944043 -19.48828125 24.03710938 C-20.83131002 25.0554642 -22.17245513 26.07630795 -23.51171875 27.09960938 C-24.15753906 27.58365234 -24.80335938 28.06769531 -25.46875 28.56640625 C-26.05076172 29.00927979 -26.63277344 29.45215332 -27.23242188 29.90844727 C-29.19157433 31.11830509 -30.71881794 31.69187961 -33 32 C-38.3314981 29.13919614 -42.80594237 24.90871526 -47.4140625 21.0234375 C-50.09753372 18.7854164 -50.09753372 18.7854164 -54 17 C-54 133.82 -54 250.64 -54 371 C33.78 371 121.56 371 212 371 C212 254.18 212 137.36 212 17 C208.25329025 19.24802585 204.73036988 21.52510323 201.1875 24.0625 C200.21167969 24.75472656 199.23585938 25.44695312 198.23046875 26.16015625 C197.49441406 26.76730469 196.75835937 27.37445313 196 28 C196 28.66 196 29.32 196 30 C189.74636058 32.32978723 189.74636058 32.32978723 186.3125 30.8125 C185.549375 30.214375 184.78625 29.61625 184 29 C181.29835869 26.65268916 181.29835869 26.65268916 178 26 C178 25.34 178 24.68 178 24 C176.28502228 22.41173778 176.28502228 22.41173778 174.125 20.875 C173.04605469 20.06675781 173.04605469 20.06675781 171.9453125 19.2421875 C170.10373994 17.82060368 170.10373994 17.82060368 168 18 C168 17.34 168 16.68 168 16 C165.83859805 14.1191794 165.83859805 14.1191794 163 13 C158.58704065 13.92904407 154.34374392 16.99352132 151 20 C151 20.66 151 21.32 151 22 C150.46375 22.2475 149.9275 22.495 149.375 22.75 C146.4176018 24.30652537 143.70275949 26.03435673 141 28 C141 28.66 141 29.32 141 30 C137.92078357 31.39436216 136.31159965 32.07324233 133 32 C128.90323446 29.86943842 125.52153716 26.96473378 122 24 C120.18937739 22.56013602 118.37697226 21.12250973 116.5625 19.6875 C115.78003906 19.05199219 114.99757813 18.41648437 114.19140625 17.76171875 C113.46824219 17.18035156 112.74507812 16.59898438 112 16 C111.32839844 15.40832031 110.65679687 14.81664063 109.96484375 14.20703125 C108.10640806 12.77778622 108.10640806 12.77778622 106.08862305 13.27026367 C103.84860609 14.05289496 102.45294943 14.97702623 100.6171875 16.46875 C100.00746094 16.95730469 99.39773438 17.44585937 98.76953125 17.94921875 C98.14433594 18.46097656 97.51914062 18.97273438 96.875 19.5 C90.19059406 24.90470297 90.19059406 24.90470297 88 26 C88 26.66 88 27.32 88 28 C86.68747118 28.70674629 85.34721283 29.36184656 84 30 C82.6696875 30.7425 82.6696875 30.7425 81.3125 31.5 C76.8524508 32.17321497 75.39352913 30.86124942 71.83984375 28.2734375 C69.53631547 26.42934746 67.26563045 24.55860653 65.00390625 22.6640625 C64.29411621 22.07375244 63.58432617 21.48344238 62.85302734 20.87524414 C61.41864276 19.67453325 59.99550943 18.46024166 58.58447266 17.23217773 C57.92108887 16.67216064 57.25770508 16.11214355 56.57421875 15.53515625 C55.98213623 15.023479 55.39005371 14.51180176 54.7800293 13.98461914 C53.04064516 12.79927542 53.04064516 12.79927542 50.97973633 13.22045898 C47.9894738 14.39790482 45.5615672 16.0788246 43 18 C43 18.66 43 19.32 43 20 C42.28972656 20.23589844 41.57945312 20.47179687 40.84765625 20.71484375 C36.46637387 22.69213031 33.22976941 25.87572 29.62109375 29.00390625 C25.94584938 31.80278833 25.94584938 31.80278833 23 32 C18.14798336 29.71131291 14.40719549 26.80207547 10.48046875 23.171875 C9.05332768 21.79311668 9.05332768 21.79311668 7 22 C7 21.34 7 20.68 7 20 C1.94154478 15.26789673 -4.04561158 10.04561158 -10 16 Z " fill="#2C2C2C" transform="translate(171,59)"/>
<path d="M0 0 C1.56621094 0.68835938 1.56621094 0.68835938 3.1640625 1.390625 C9.13715627 4.2067238 15.23051488 7.34273806 20 12 C20 12.66 20 13.32 20 14 C21.485 14.495 21.485 14.495 23 15 C24.71803857 16.88067561 26.27266496 18.73157542 27.8125 20.75 C28.25464844 21.32838623 28.69679688 21.90677246 29.15234375 22.50268555 C40.28128049 37.54668135 43.89692813 55.39080773 41.3125 73.75 C39.09103462 85.69995171 34.80618853 96.59121647 27 106 C26.34 106 25.68 106 25 106 C24.73832031 106.59296875 24.47664063 107.1859375 24.20703125 107.796875 C19.41196209 116.54904007 7.24984337 123.09096605 -1.73828125 126.359375 C-22.18328043 132.318002 -41.01119226 131.0530002 -59.7578125 120.95703125 C-75.64576043 111.36683618 -85.85543852 97.25846936 -90.69921875 79.42578125 C-91.2605865 76.95337437 -91.66070395 74.5123157 -92 72 C-92.21849609 70.52466797 -92.21849609 70.52466797 -92.44140625 69.01953125 C-94.4445772 51.70791703 -88.49575645 33.76928673 -78 20 C-59.35528374 -1.70436201 -27.02568996 -11.99496377 0 0 Z M-63 21 C-63 21.66 -63 22.32 -63 23 C-63.66 23 -64.32 23 -65 23 C-65 23.66 -65 24.32 -65 25 C-65.66 25 -66.32 25 -67 25 C-76.81252832 36.1719466 -81.51820505 50.56487543 -81.1875 65.28125 C-80.28709387 78.33713891 -75.76784125 90.18836813 -67 100 C-66.34 100 -65.68 100 -65 100 C-64.76925781 100.57878906 -64.53851563 101.15757812 -64.30078125 101.75390625 C-59.09765575 110.73828211 -46.5185195 114.88022437 -37.07763672 117.54199219 C-21.08229816 121.06810913 -5.59991615 116.2926318 8 108 C8.99 107.34 9.98 106.68 11 106 C11 105.34 11 104.68 11 104 C11.66 104 12.32 104 13 104 C13 103.34 13 102.68 13 102 C13.99 101.67 14.98 101.34 16 101 C18.40995366 98.36458982 18.40995366 98.36458982 19 95 C19.66 95 20.32 95 21 95 C22.13277268 92.81623234 23.25622789 90.62842872 24.375 88.4375 C24.85066406 87.52387695 24.85066406 87.52387695 25.3359375 86.59179688 C31.24095697 74.96628979 32.476393 59.69396699 29.125 46.9921875 C27.96145484 43.81540301 26.64178345 40.95603939 25 38 C24.20335937 36.54400391 24.20335937 36.54400391 23.390625 35.05859375 C19.78302458 28.97697377 15.54560778 23.44923475 10 19 C9.34 19 8.68 19 8 19 C8 18.34 8 17.68 8 17 C-15.16382282 4.65723309 -42.04206062 1.9223991 -63 21 Z " fill="#333333" transform="translate(275,108)"/>
<path d="M0 0 C1.95192513 -0.00832352 1.95192513 -0.00832352 3.94328308 -0.01681519 C7.50540797 -0.03104539 11.06675929 -0.01402091 14.62881017 0.00946999 C18.35852961 0.02959665 22.0882175 0.02369856 25.81797791 0.0213623 C32.07995341 0.02141585 38.34162691 0.04115851 44.60351562 0.07324219 C51.84214331 0.11015013 59.08037568 0.11891532 66.31908518 0.11194468 C73.28539876 0.10563914 80.25157685 0.11639382 87.21786308 0.13591003 C90.18150196 0.1440826 93.14507158 0.14679386 96.10872078 0.1452179 C100.24586063 0.14417561 104.38247924 0.16834974 108.51953125 0.1953125 C109.75029388 0.1923819 110.98105652 0.18945129 112.24911499 0.18643188 C113.93776924 0.20345657 113.93776924 0.20345657 115.66053772 0.2208252 C117.12750894 0.22641827 117.12750894 0.22641827 118.62411594 0.23212433 C121.66087108 0.68464589 123.04230909 1.44126024 125.19506836 3.61523438 C125.63256836 7.17773438 125.63256836 7.17773438 125.19506836 10.61523438 C121.80911707 12.87253523 120.65874073 12.8677557 116.69140625 12.87593079 C114.97523605 12.886558 114.97523605 12.886558 113.22439575 12.8973999 C111.34009354 12.89368378 111.34009354 12.89368378 109.41772461 12.88989258 C108.08226231 12.89423944 106.74680252 12.89942251 105.41134644 12.90538025 C101.78331113 12.91878318 98.15537992 12.91934758 94.52732468 12.91681695 C91.50031855 12.91574828 88.47333358 12.92062784 85.44633198 12.92542237 C78.30689732 12.93652166 71.16751528 12.93695236 64.02807617 12.9309082 C56.65771576 12.92486463 49.28754607 12.93718809 41.91721821 12.95847827 C35.59273465 12.97607702 29.26831189 12.98209844 22.94380474 12.97884053 C19.16488651 12.97702503 15.38610437 12.9796904 11.60720825 12.99355507 C8.05474041 13.00610115 4.50257067 13.00422025 0.95010757 12.99114418 C-0.97802247 12.98763894 -2.90616149 12.99897958 -4.83425903 13.01071167 C-5.9783725 13.00369736 -7.12248596 12.99668304 -8.30126953 12.98945618 C-9.29751846 12.98962392 -10.2937674 12.98979166 -11.32020569 12.98996449 C-14.21121855 12.55396084 -15.05519874 11.90384626 -16.80493164 9.61523438 C-17.80493164 7.74023438 -17.80493164 7.74023438 -17.80493164 5.61523438 C-13.42075608 -1.07664437 -7.40046265 -0.07988205 0 0 Z " fill="#3F3F3F" transform="translate(220.804931640625,371.384765625)"/>
<path d="M0 0 C3.4375 -0.5 3.4375 -0.5 7 0 C9 2.25 9 2.25 10 5 C9.6875 7.3125 9.6875 7.3125 9 9 C9.86625 9.061875 10.7325 9.12375 11.625 9.1875 C15.95002344 10.22870935 17.96987921 11.75847544 21 15 C22.0625 18.625 22.0625 18.625 22 22 C20.61015829 24.19448691 19.41871168 24.79064416 17.125 25.9375 C13.79268015 26.03550941 12.37605074 24.19327761 10 22 C9.566875 21.4225 9.13375 20.845 8.6875 20.25 C5.83545379 18.13737317 2.42454344 18.64097528 -1 19 C-1.99 19.33 -2.98 19.66 -4 20 C-4 21.65 -4 23.3 -4 25 C-3.45472656 25.18175781 -2.90945312 25.36351562 -2.34765625 25.55078125 C-0.75742144 26.08085952 0.83239154 26.61220424 2.421875 27.14453125 C4.07501019 27.69307156 5.7310641 28.23293709 7.390625 28.76171875 C19.90711326 32.78487569 19.90711326 32.78487569 24 39 C25.65597473 43.13993684 25.69904062 47.86293295 24.31640625 52.08984375 C22.13886075 56.94188497 19.79510381 59.4556592 15 62 C14.071875 62.309375 13.14375 62.61875 12.1875 62.9375 C11.465625 63.288125 10.74375 63.63875 10 64 C9.32852082 66.44063441 9.32852082 66.44063441 9 69 C7.8125 70.875 7.8125 70.875 6 72 C2.9375 71.875 2.9375 71.875 0 71 C-2 68 -2 68 -2.125 65.5 C-2.41375 64.675 -2.7025 63.85 -3 63 C-4.93050076 62.09819331 -6.89285967 61.51787238 -8.92578125 60.8828125 C-12.88428509 59.19802556 -15.10535773 55.78928455 -17 52 C-17.1875 49 -17.1875 49 -17 46 C-15 44 -15 44 -12.0625 43.75 C-9 44 -9 44 -6 46 C-4.98812105 47.65948148 -3.9873454 49.32580562 -3 51 C-0.66062093 52.16968953 0.77369368 52.13364221 3.375 52.125 C4.14585937 52.12757813 4.91671875 52.13015625 5.7109375 52.1328125 C7.9328189 52.00389788 9.86618508 51.61383717 12 51 C12 48.69 12 46.38 12 44 C6.582968 41.97118764 1.22378278 40.02965091 -4.375 38.5625 C-10.02977072 36.89564207 -12.63518563 34.04722155 -15.875 29.1875 C-17.66359226 24.11982193 -16.91550585 20.1201188 -14.8125 15.25 C-12.50244278 12.38234276 -10.23728161 10.74813207 -7 9 C-4.125 8.75 -4.125 8.75 -2 9 C-2.04125 8.071875 -2.0825 7.14375 -2.125 6.1875 C-2 3 -2 3 0 0 Z " fill="#303030" transform="translate(246,135)"/>
<path d="M0 0 C1.1596376 -0.00426498 2.31927521 -0.00852997 3.51405334 -0.01292419 C4.7977179 -0.01247101 6.08138245 -0.01201782 7.40394592 -0.0115509 C8.76043796 -0.01454086 10.11692914 -0.01794301 11.47341919 -0.02172852 C15.16759585 -0.0305894 18.86174937 -0.0329075 22.55593562 -0.0335443 C25.63512149 -0.03449169 28.71430192 -0.03816801 31.7934857 -0.0417164 C39.05556898 -0.0498689 46.31763985 -0.05229991 53.57972717 -0.05158997 C61.08180598 -0.05098896 68.58381293 -0.06154339 76.08587354 -0.07733363 C82.51729769 -0.0903902 88.94869829 -0.09577466 95.3801356 -0.09513456 C99.22553534 -0.09487901 103.07087126 -0.09776113 106.91625786 -0.10831261 C110.53183518 -0.11796201 114.14728726 -0.11809465 117.76286888 -0.11079597 C119.72818479 -0.10924415 121.69350059 -0.11761888 123.65879822 -0.12623596 C124.82125565 -0.12204147 125.98371307 -0.11784698 127.18139648 -0.11352539 C128.19591353 -0.11407016 129.21043058 -0.11461493 130.25569057 -0.1151762 C132.65419006 0.13371277 132.65419006 0.13371277 134.65419006 2.13371277 C134.96669006 5.63371277 134.96669006 5.63371277 134.65419006 9.13371277 C131.26356919 11.39412669 130.08878361 11.38944275 126.11256409 11.40786743 C124.38377266 11.42283012 124.38377266 11.42283012 122.62005615 11.43809509 C121.35450394 11.43875977 120.08895172 11.43942444 118.78504944 11.44010925 C117.43973327 11.44773007 116.09442146 11.45615743 114.74911499 11.46533203 C111.0942407 11.4872876 107.43945007 11.49607694 103.78451729 11.50115848 C101.50214772 11.50479981 99.21980016 11.51103858 96.93743896 11.51815987 C88.97826675 11.54265486 81.01915976 11.55570705 73.05995178 11.55924988 C65.63495467 11.56288862 58.21037004 11.59280766 50.7854991 11.63465446 C44.41430472 11.66930702 38.04324743 11.68479741 31.6719594 11.68549591 C27.8649757 11.68629025 24.0584124 11.69510032 20.25152588 11.72349358 C16.67265411 11.74958985 13.09455386 11.75192793 9.51563072 11.73583794 C7.57314609 11.73314701 5.63067704 11.75526292 3.68832397 11.7780304 C1.95953255 11.76338493 1.95953255 11.76338493 0.19581604 11.7484436 C-1.30961887 11.7514606 -1.30961887 11.7514606 -2.84546661 11.75453854 C-5.34580994 11.13371277 -5.34580994 11.13371277 -7.23903656 8.76716709 C-8.34580994 6.13371277 -8.34580994 6.13371277 -7.59580994 3.38371277 C-5.45587309 -0.46817356 -4.35172344 0.00719113 0 0 Z " fill="#303030" transform="translate(211.34580993652344,270.8662872314453)"/>
<path d="M0 0 C1.16101227 -0.00563965 2.32202454 -0.0112793 3.51821899 -0.01708984 C4.79828827 -0.01304138 6.07835754 -0.00899292 7.3972168 -0.00482178 C8.7538573 -0.00753072 10.11049634 -0.0110911 11.46713257 -0.01544189 C15.15714989 -0.02457978 18.8470557 -0.02101593 22.53707504 -0.01468372 C26.39320941 -0.00963094 30.24933403 -0.01431316 34.10546875 -0.01745605 C40.58196736 -0.02109781 47.05842041 -0.01629112 53.53491211 -0.0067749 C61.02963443 0.00411007 68.52424795 0.00058464 76.01896763 -0.01042771 C82.44617172 -0.01949463 88.873343 -0.02078879 95.30055141 -0.01555037 C99.14257529 -0.01242738 102.98454798 -0.01203031 106.8265686 -0.01862335 C110.43806697 -0.02438757 114.04942463 -0.02041703 117.66090775 -0.00883484 C119.62382055 -0.00491529 121.5867452 -0.01088178 123.5496521 -0.01708984 C124.71066437 -0.0114502 125.87167664 -0.00581055 127.06787109 0 C128.08108932 0.00075405 129.09430756 0.0015081 130.13822937 0.002285 C132.53393555 0.25396729 132.53393555 0.25396729 134.53393555 2.25396729 C134.87883877 6.30658016 134.83557437 7.80150905 132.53393555 11.25396729 C130.13822937 11.6286974 130.13822937 11.6286974 127.06787109 11.62818909 C125.32635269 11.63871056 125.32635269 11.63871056 123.5496521 11.64944458 C122.26958282 11.64180084 120.98951355 11.6341571 119.6706543 11.62628174 C118.31401287 11.62870871 116.95737322 11.63242712 115.60073853 11.63734436 C111.91066268 11.64677006 108.22085129 11.63731406 104.53079605 11.62401223 C100.67466427 11.61271832 96.8185459 11.61680364 92.96240234 11.61875916 C86.48587712 11.61964279 80.00945644 11.60854737 73.53295898 11.59014893 C66.03823069 11.56898021 58.5436556 11.56547099 51.04890347 11.57171088 C43.84822498 11.5773997 36.64760061 11.57176459 29.44692993 11.56053734 C26.3783773 11.55588493 23.3098577 11.55502026 20.24130249 11.55712318 C16.62979202 11.55900274 13.01843812 11.55092808 9.40696335 11.53506279 C7.4440586 11.52877552 5.48113014 11.53233384 3.51821899 11.53613281 C1.77670059 11.5255056 1.77670059 11.5255056 0 11.5146637 C-1.01321823 11.51261083 -2.02643646 11.51055796 -3.07035828 11.50844288 C-5.46606445 11.25396729 -5.46606445 11.25396729 -7.46606445 9.25396729 C-7.71606445 5.75396729 -7.71606445 5.75396729 -7.46606445 2.25396729 C-4.83257504 -0.37952213 -3.67415339 0.00273436 0 0 Z " fill="#303030" transform="translate(211.466064453125,321.74603271484375)"/>
<path d="M0 0 C4.26873552 2.37709978 6.5897513 5.28206478 9 9.5 C10.35278499 14.5729437 10.81587136 19.6363852 8.83984375 24.59765625 C5.68212143 30.02975092 1.77708136 33.30347288 -4.25 35.3125 C-10.60418627 35.85099036 -14.94942527 34.95222798 -20.25 31.3125 C-25.59293846 25.68835425 -26.83672599 21.00720704 -26.6875 13.359375 C-25.98541223 8.46983517 -23.90376378 5.54646965 -20.25 2.3125 C-13.78645715 -2.36891375 -7.29143458 -3.30815087 0 0 Z M-13.6875 12.5 C-15.47529278 15.15897339 -15.47529278 15.15897339 -15.1875 17.9375 C-14.15737836 20.54714149 -13.60055139 21.77248357 -11.25 23.3125 C-7.17205575 23.73728586 -5.71923881 23.62532587 -2.25 21.3125 C-1.1541582 18.48992605 -1.1541582 18.48992605 -1.25 15.3125 C-2.65878096 12.3223357 -2.65878096 12.3223357 -5.25 10.3125 C-9.29080081 9.4706665 -10.5980931 9.72745535 -13.6875 12.5 Z " fill="#343434" transform="translate(180.25,259.6875)"/>
<path d="M0 0 C4.89013704 2.1785009 7.80820026 4.90816345 10.828125 9.30078125 C12.66927447 15.10748344 12.71754839 21.05419249 10.140625 26.61328125 C7.47739149 31.2972199 4.54208473 33.62166513 -0.484375 35.61328125 C-6.74070581 36.77971581 -12.13783065 36.12826386 -17.5625 32.64453125 C-21.50822299 29.3500441 -23.74443543 25.68818764 -24.65234375 20.6171875 C-24.94383457 14.93705556 -24.16906499 10.6522822 -20.78125 6.02734375 C-14.92337629 -0.25707416 -8.33787928 -2.68431725 0 0 Z M-10.421875 11.42578125 C-12.62854136 13.79006664 -13.09494828 15.06985897 -13.171875 18.30078125 C-12.0302831 20.58396505 -10.98174817 22.49090808 -9.171875 24.30078125 C-4.24445993 24.06413982 -4.24445993 24.06413982 -0.171875 21.55078125 C1.12454663 18.63383259 0.89861284 17.28285452 -0.171875 14.30078125 C-1.80853047 12.00946359 -2.94853522 11.3809545 -5.609375 10.42578125 C-8.20819065 10.08912912 -8.20819065 10.08912912 -10.421875 11.42578125 Z " fill="#2D2D2D" transform="translate(178.171875,309.69921875)"/>
<path d="M0 0 C3.9476172 2.78127575 7.85874468 6.22103918 9.40234375 10.92578125 C10.59449907 17.82420811 9.45595649 22.62360152 6.75 28.9375 C6.09 28.9375 5.43 28.9375 4.75 28.9375 C4.75 29.5975 4.75 30.2575 4.75 30.9375 C-0.78348037 34.51120607 -5.67178407 36.89553407 -12.359375 35.49609375 C-17.05436601 33.95168881 -20.04728533 31.7807576 -23.25 27.9375 C-23.848125 27.23625 -24.44625 26.535 -25.0625 25.8125 C-27.37097904 20.22355074 -27.04920126 14.2089141 -25.0625 8.5625 C-18.7497557 -0.5800952 -10.64933016 -3.48151178 0 0 Z M-12.375 11.625 C-14.51381885 14.26287658 -15.33312096 15.5295406 -15.25 18.9375 C-13.31307631 21.95783737 -13.31307631 21.95783737 -10.25 23.9375 C-7.09627591 24.27300847 -7.09627591 24.27300847 -4.25 22.9375 C-2.07979708 20.84828244 -2.07979708 20.84828244 -1.25 17.9375 C-1.857089 14.49732898 -2.29215404 12.61726165 -5.1875 10.5625 C-8.37502042 9.59658472 -9.72648674 9.52176888 -12.375 11.625 Z " fill="#333333" transform="translate(180.25,361.0625)"/>
<path d="M0 0 C1.14418396 -0.00563965 2.28836792 -0.0112793 3.46722412 -0.01708984 C4.72859192 -0.01304138 5.98995972 -0.00899292 7.28955078 -0.00482178 C8.62648713 -0.00753074 9.96342199 -0.01109114 11.300354 -0.01544189 C14.93665457 -0.02457947 18.57284198 -0.02101606 22.20914459 -0.01468372 C26.00922457 -0.00963078 29.80929466 -0.0143132 33.609375 -0.01745605 C39.99171697 -0.02109777 46.3740127 -0.01629124 52.75634766 -0.0067749 C60.14200738 0.00411006 67.52755669 0.00058462 74.91321373 -0.01042771 C81.24700047 -0.01949477 87.58075392 -0.02078873 93.91454506 -0.01555037 C97.70067785 -0.01242746 101.4867587 -0.0120301 105.27288818 -0.01862335 C108.83185766 -0.02438776 112.39068436 -0.02041668 115.94963837 -0.00883484 C117.88392438 -0.00491549 119.81822242 -0.01088162 121.75250244 -0.01708984 C122.8966864 -0.0114502 124.04087036 -0.00581055 125.21972656 0 C126.21819611 0.00075405 127.21666565 0.0015081 128.24539185 0.002285 C130.60986328 0.25396729 130.60986328 0.25396729 132.60986328 2.25396729 C132.73486328 4.87896729 132.73486328 4.87896729 132.60986328 7.25396729 C131.61986328 6.92396729 130.62986328 6.59396729 129.60986328 6.25396729 C129.27986328 4.93396729 128.94986328 3.61396729 128.60986328 2.25396729 C84.71986328 2.25396729 40.82986328 2.25396729 -4.39013672 2.25396729 C-5.05013672 3.90396729 -5.71013672 5.55396729 -6.39013672 7.25396729 C-6.72013672 7.25396729 -7.05013672 7.25396729 -7.39013672 7.25396729 C-7.51513672 4.87896729 -7.51513672 4.87896729 -7.39013672 2.25396729 C-4.76990118 -0.36626826 -3.652956 0.00275874 0 0 Z " fill="#0C0C0C" transform="translate(212.39013671875,271.74603271484375)"/>
<path d="M0 0 C1.50160077 0.00276538 1.50160077 0.00276538 3.03353691 0.00558662 C4.18061119 0.0028373 5.32768547 0.00008797 6.50951958 -0.00274467 C7.77402946 0.00444588 9.03853935 0.01163643 10.34136772 0.01904488 C11.68154708 0.0196088 13.02172705 0.01929279 14.36190605 0.01815987 C18.0063533 0.01758462 21.65066964 0.02936658 25.29508638 0.04330778 C29.10143087 0.05578662 32.90777815 0.05698339 36.71413994 0.0593586 C43.92479331 0.06558176 51.13538623 0.08200384 58.34601295 0.10205758 C66.55387532 0.12439061 74.76174053 0.13540346 82.96962571 0.14544845 C99.85643279 0.16636938 116.74318098 0.20156154 133.62994194 0.24609566 C133.62994194 0.57609566 133.62994194 0.90609566 133.62994194 1.24609566 C89.07994194 1.24609566 44.52994194 1.24609566 -1.37005806 1.24609566 C-2.03005806 3.22609566 -2.69005806 5.20609566 -3.37005806 7.24609566 C-3.70005806 7.24609566 -4.03005806 7.24609566 -4.37005806 7.24609566 C-4.49505806 4.87109566 -4.49505806 4.87109566 -4.37005806 2.24609566 C-2.37005806 0.24609566 -2.37005806 0.24609566 0 0 Z " fill="#0C0C0C" transform="translate(209.37005805969238,322.75390434265137)"/>
<path d="M0 0 C0.66 0 1.32 0 2 0 C2.33 0.99 2.66 1.98 3 3 C2.05125 3.7425 1.1025 4.485 0.125 5.25 C-3.77884751 8.55538032 -4.82259355 10.50471704 -5.4375 15.6875 C-5.34964323 20.87104916 -2.75218091 24.75377803 0 29 C-2.78683315 27.75053142 -3.9179382 27.11430036 -5.75 24.5625 C-7.71902694 18.95077323 -8.37800628 13.159207 -5.9453125 7.58203125 C-4.1908281 4.73229179 -2.36673704 2.36673704 0 0 Z " fill="#C8C8C8" transform="translate(161,312)"/>
<path d="M0 0 C0.33 0 0.66 0 1 0 C1 2.31 1 4.62 1 7 C-0.134375 7.268125 -1.26875 7.53625 -2.4375 7.8125 C-3.613125 8.204375 -4.78875 8.59625 -6 9 C-6.33 9.99 -6.66 10.98 -7 12 C-10.44444444 15 -10.44444444 15 -13 15 C-12.60888843 12.59157615 -12.2758363 11.28176826 -10.546875 9.515625 C-4.57204433 5.30726601 -4.57204433 5.30726601 0 6 C0 4.02 0 2.04 0 0 Z " fill="#DEDEDE" transform="translate(244,138)"/>
<path d="M0 0 C0 0.99 0 1.98 0 3 C-2.51833989 4.79881421 -4.79937777 5.93616565 -7.75 6.875 C-8.86375 7.431875 -8.86375 7.431875 -10 8 C-10.89386164 10.54775306 -10.89386164 10.54775306 -11 13 C-11.33 13 -11.66 13 -12 13 C-12 10.69 -12 8.38 -12 6 C-11.30132812 5.73445312 -10.60265625 5.46890625 -9.8828125 5.1953125 C-8.97273438 4.84210938 -8.06265625 4.48890625 -7.125 4.125 C-6.22007812 3.77695313 -5.31515625 3.42890625 -4.3828125 3.0703125 C-1.87782993 2.11469105 -1.87782993 2.11469105 0 0 Z " fill="#CDCDCD" transform="translate(266,191)"/>
<path d="M0 0 C7.875 0.875 7.875 0.875 9 2 C9.33926947 4.33247761 9.67240066 6.66585471 10 9 C10.33 9.66 10.66 10.32 11 11 C10.01 10.67 9.02 10.34 8 10 C7.731875 8.865625 7.46375 7.73125 7.1875 6.5625 C6.5996875 4.7990625 6.5996875 4.7990625 6 3 C2.99405579 1.46853622 2.99405579 1.46853622 0 1 C0 0.67 0 0.34 0 0 Z " fill="#B5B5B5" transform="translate(237,195)"/>
<path d="M0 0 C0.928125 0.2784375 0.928125 0.2784375 1.875 0.5625 C4.04160178 1.23686176 4.04160178 1.23686176 6 0 C4.55746343 3.36591866 2.66735273 5.51047079 0 8 C-1.125 2.25 -1.125 2.25 0 0 Z " fill="#686868" transform="translate(202,133)"/>
<path d="M0 0 C2.95929119 2.75520215 5.03681826 5.46627288 7 9 C4.50638429 7.79618552 2.31856917 6.54571278 0 5 C0 4.34 0 3.68 0 3 C-0.99 2.67 -1.98 2.34 -3 2 C-2.01 1.34 -1.02 0.68 0 0 Z " fill="#898989" transform="translate(178,76)"/>
<path d="M0 0 C0.33 0.99 0.66 1.98 1 3 C-1.31 4.65 -3.62 6.3 -6 8 C-5.62403791 5.21788056 -5.32681541 3.4120716 -3.5625 1.1875 C-2 0 -2 0 0 0 Z " fill="#6D6D6D" transform="translate(163,312)"/>
<path d="M0 0 C1.98 0 3.96 0 6 0 C5.67 0.66 5.34 1.32 5 2 C4.34 2 3.68 2 3 2 C3 2.66 3 3.32 3 4 C1 5.625 1 5.625 -1 7 C-1.66 6.67 -2.32 6.34 -3 6 C-2 4 -1 2 0 0 Z " fill="#8B8B8B" transform="translate(256,83)"/>
<path d="M0 0 C3.87132028 0.57352893 6.08172796 2.48704352 9 5 C8.67 5.66 8.34 6.32 8 7 C7.38125 6.2884375 7.38125 6.2884375 6.75 5.5625 C5.10921183 3.84723373 5.10921183 3.84723373 2.875 3.5 C2.25625 3.335 1.6375 3.17 1 3 C0.67 2.01 0.34 1.02 0 0 Z " fill="#AAAAAA" transform="translate(178,260)"/>
<path d="M0 0 C0.66 0.66 1.32 1.32 2 2 C1.01 1.67 0.02 1.34 -1 1 C-0.67 0.67 -0.34 0.34 0 0 Z M-5 2 C-2.8125 2.3125 -2.8125 2.3125 -1 3 C-2.8125 4.5625 -2.8125 4.5625 -5 6 C-5.99 5.67 -6.98 5.34 -8 5 C-6.75 3.4375 -6.75 3.4375 -5 2 Z " fill="#5C5C5C" transform="translate(149,72)"/>
<path d="M0 0 C2.0625 0.4375 2.0625 0.4375 4 1 C2.71034824 2.37562854 1.37310707 3.70766393 0 5 C-0.66 5 -1.32 5 -2 5 C-1.125 1.125 -1.125 1.125 0 0 Z " fill="#7C7C7C" transform="translate(233,148)"/>
</svg>
